# xmcd
# Copyright (C) 1995-1998 Ti Kan
#
# Track frame offsets:
#       150
#       14213
#       29069
#       44416
#       63998
#       83435
#       100266
#       115924
#       138919
#       156866
#       178291
#
# Disc length: 2621 seconds
#
# Revision: 0
# Processed by: cddbd v1.5.2PL0 Copyright (c) Steve Scherf et al.
# Submitted via: CD-Import v1.0
#
DISCID=960a3b0b
DTITLE=Andrew Collberg - On The Wreath
DYEAR=10
DGENRE=
TTITLE0=Clouds Of All Your Rain
TTITLE1=Clementine
TTITLE2=To The Road
TTITLE3=Wait Inside
TTITLE4=Plastic Bows
TTITLE5=Garbage Day
TTITLE6=Bare Back Bones
TTITLE7=The Tide Below
TTITLE8=Man In The Moose Suit
TTITLE9=Oh Why
TTITLE10=Make It Right
EXTD=
EXTT0=
EXTT1=
EXTT2=
EXTT3=
EXTT4=
EXTT5=
EXTT6=
EXTT7=
EXTT8=
EXTT9=
EXTT10=
PLAYORDER=
